<?xml version="1.0" encoding="UTF-8"?>
<svg xmlns="http://www.w3.org/2000/svg" xmlns:xlink="http://www.w3.org/1999/xlink" version="1.1" viewBox="0 0 1297.632 309.379">
  <!-- Generator: Adobe Illustrator 30.1.0, SVG Export Plug-In . SVG Version: 2.1.1 Build 136)  -->
  <defs>
    <linearGradient id="Gradiente_sem_nome_10" data-name="Gradiente sem nome 10" x1="147.285" y1="208.671" x2="258.529" y2="97.427" gradientUnits="userSpaceOnUse">
      <stop offset="0" stop-color="#bacf31"/>
      <stop offset="1" stop-color="#bacf31"/>
    </linearGradient>
    <linearGradient id="Gradiente_sem_nome_101" data-name="Gradiente sem nome 10" x1="11.031" y1="220.621" x2="122.275" y2="109.377" xlink:href="#Gradiente_sem_nome_10"/>
    <linearGradient id="Gradiente_sem_nome_2" data-name="Gradiente sem nome 2" x1="946.429" y1="163.749" x2="1011.847" y2="163.749" gradientUnits="userSpaceOnUse">
      <stop offset="0" stop-color="#bacf31"/>
      <stop offset="1" stop-color="#bacf31"/>
    </linearGradient>
    <linearGradient id="Gradiente_sem_nome_21" data-name="Gradiente sem nome 2" x1="1021.406" x2="1113.973" xlink:href="#Gradiente_sem_nome_2"/>
    <linearGradient id="Gradiente_sem_nome_22" data-name="Gradiente sem nome 2" x1="1133.623" x2="1217.398" xlink:href="#Gradiente_sem_nome_2"/>
  </defs>
  <g id="Camada_2" display="none">
    <rect x="-372.762" y="-329.417" width="2004.652" height="1000" fill="#1f1f1c"/>
  </g>
  <g id="Camada_1">
    <g>
      <g id="path6" opacity=".89">
        <path d="M212.306,263.629c-7.222,0-14.152-3.199-18.975-9.093l-.076-.093-99.01-123.103,85.938-68.194c10.656-8.456,24.886-10.033,37.135-4.113,12.249,5.919,19.856,18.048,19.852,31.652l-.043,148.225c-.003,10.569-6.437,19.693-16.392,23.246-2.782.993-5.629,1.475-8.43,1.475ZM208.657,238.9s0,0,0,0h0s0,0,0,0ZM134.392,135.828l74.268,92.341.04-137.494c.001-3.779-2.635-5.462-3.769-6.009-1.134-.548-4.09-1.568-7.05.781l-63.489,50.381Z" fill="url(#Gradiente_sem_nome_10)"/>
      </g>
      <g id="path61" data-name="path6">
        <path d="M67.592,262.561c-5.197,0-10.433-1.168-15.351-3.545-12.249-5.919-19.856-18.048-19.852-31.652l.043-148.225c.003-10.569,6.437-19.694,16.392-23.246,9.955-3.552,20.711-.562,27.404,7.618l.075.093,99.01,123.103-85.938,68.194c-6.378,5.061-14.037,7.658-21.784,7.658ZM60.9,89.879l-.04,137.494c-.001,3.779,2.635,5.462,3.769,6.009,1.134.548,4.09,1.568,7.05-.781l63.489-50.381L60.9,89.879ZM60.903,79.148h0s0,0,0,0Z" fill="url(#Gradiente_sem_nome_101)"/>
      </g>
    </g>
    <text transform="translate(-4484.696 602.472)" fill="#f2f2f2" font-family="BricolageGrotesque-Regular, &apos;Bricolage Grotesque&apos;" font-size="195.011"><tspan x="0" y="0">lab / ivaldino.fortes 2026</tspan></text>
    <g>
      <g>
        <g>
          <path d="M335.167,248.354h-35.41c-5.665,0-8.498-2.832-8.498-8.498V86.887c0-5.666,2.833-8.498,8.498-8.498h24.55c5.666,0,10.306,2.125,13.928,6.374l45.796,52.406v-50.281c0-5.666,2.833-8.498,8.499-8.498h35.409c5.666,0,8.499,2.833,8.499,8.498v152.969c0,5.666-2.833,8.498-8.499,8.498h-35.409c-5.666,0-8.499-2.832-8.499-8.498v-29.036l-40.367-48.865v77.901c0,5.666-2.833,8.498-8.498,8.498Z" fill="#262626"/>
          <path d="M587.043,248.354h-109.533c-5.666,0-8.499-2.832-8.499-8.498V86.887c0-5.666,2.833-8.498,8.499-8.498h109.533c5.666,0,8.499,2.833,8.499,8.498v27.619c0,5.666-2.833,8.498-8.499,8.498h-65.153v18.177h46.032c5.666,0,8.498,2.833,8.498,8.498v25.259c0,5.666-2.832,8.498-8.498,8.498h-46.032v20.301h65.153c5.666,0,8.499,2.833,8.499,8.498v27.619c0,5.666-2.833,8.498-8.499,8.498Z" fill="#262626"/>
          <path d="M674.149,239.855c0,5.666-2.833,8.498-8.498,8.498h-35.882c-5.665,0-8.498-2.832-8.498-8.498v-25.259c0-4.876.273-8.853.826-11.922.55-3.069,1.453-5.901,2.715-8.498,1.258-2.596,3.069-5.466,5.429-8.616l19.121-25.731-19.121-25.731c-2.361-3.305-4.212-6.215-5.548-8.734-1.339-2.516-2.242-5.312-2.715-8.38-.472-3.069-.708-7.041-.708-11.921v-18.177c0-5.666,2.833-8.498,8.498-8.498h36.354c5.666,0,8.498,2.833,8.498,8.498v16.288c0,1.575.078,3.227.236,4.958.155,1.734.785,3.386,1.888,4.957l10.387,14.872c.785,1.261,1.612,2.243,2.479,2.951.863.708,1.925,1.062,3.187,1.062h2.832c1.258,0,2.28-.354,3.069-1.062.786-.708,1.652-1.689,2.597-2.951l10.623-14.872c1.099-1.571,1.73-3.224,1.888-4.957.155-1.73.236-3.382.236-4.958v-16.288c0-5.666,2.832-8.498,8.498-8.498h35.881c5.666,0,8.498,2.833,8.498,8.498v18.177c0,4.88-.236,8.852-.708,11.921-.472,3.069-1.38,5.865-2.715,8.38-1.339,2.519-3.186,5.429-5.547,8.734l-19.121,25.967,19.121,25.495c2.515,3.15,4.404,6.02,5.665,8.616,1.258,2.597,2.125,5.429,2.597,8.498.472,3.069.708,7.045.708,11.922v25.259c0,5.666-2.832,8.498-8.498,8.498h-35.881c-5.666,0-8.498-2.832-8.498-8.498v-24.314c0-1.416-.081-2.87-.236-4.367-.159-1.494-.789-3.028-1.888-4.603l-10.387-14.872c-.944-1.416-1.811-2.438-2.596-3.069-.79-.627-1.811-.944-3.069-.944h-3.305c-1.261,0-2.283.317-3.069.944-.789.631-1.652,1.653-2.596,3.069l-10.623,14.872c-1.103,1.575-1.734,3.109-1.889,4.603-.159,1.498-.236,2.951-.236,4.367v24.314Z" fill="#262626"/>
          <path d="M874.094,248.354h-38.242c-5.666,0-8.498-2.832-8.498-8.498v-115.907h-34.701c-5.666,0-8.499-2.833-8.499-8.498v-28.564c0-5.666,2.833-8.498,8.499-8.498h124.641c5.666,0,8.499,2.833,8.499,8.498v28.564c0,5.666-2.833,8.498-8.499,8.498h-34.701v115.907c0,5.666-2.833,8.498-8.499,8.498Z" fill="#262626"/>
        </g>
        <text transform="translate(1226.285 252.98)" fill="#f2f2f2" font-family="BricolageGrotesque-Regular, &apos;Bricolage Grotesque&apos;" font-size="66.275"><tspan x="0" y="0">®</tspan></text>
      </g>
      <g>
        <path d="M946.429,249.076V78.422h18.875v170.654h-18.875ZM954.703,249.076v-17.324h57.144v17.324h-57.144Z" fill="url(#Gradiente_sem_nome_2)"/>
        <path d="M1021.406,249.076l31.028-170.654h30.253l31.286,170.654h-19.393l-25.598-153.847h-2.585l-25.857,153.847h-19.134Z" fill="url(#Gradiente_sem_nome_21)"/>
        <path d="M1133.623,249.076V78.422h34.648c4.997,0,9.995.691,14.996,2.069,4.998,1.382,9.608,3.664,13.833,6.851,4.222,3.192,7.539,7.628,9.955,13.317,2.412,5.688,3.62,12.759,3.62,21.202,0,7.24-.994,13.49-2.973,18.747-1.984,5.26-5.042,9.438-9.179,12.54-4.137,3.103-9.397,5.261-15.772,6.464v2.845c11.203.864,19.78,5.042,25.728,12.541,5.947,7.498,8.92,17.542,8.92,30.122,0,8.966-1.64,16.723-4.912,23.271-3.276,6.554-8.19,11.636-14.739,15.256-6.553,3.62-14.911,5.43-25.08,5.43h-39.043ZM1152.239,153.665h10.86c10.169,0,17.538-2.457,22.108-7.369,4.565-4.913,6.851-12.451,6.851-22.625,0-9.826-2.112-17.106-6.335-21.85-4.226-4.739-10.905-7.11-20.038-7.11h-13.446v58.953ZM1152.239,232.786h20.427c8.96,0,15.469-2.456,19.522-7.369,4.048-4.912,6.076-12.023,6.076-21.332,0-11.377-2.76-20.079-8.275-26.115-5.518-6.032-13.533-9.05-24.046-9.05h-13.705v63.865Z" fill="url(#Gradiente_sem_nome_22)"/>
      </g>
    </g>
  </g>
</svg>