<?xml version="1.0" encoding="UTF-8" standalone="no"?><!DOCTYPE svg PUBLIC "-//W3C//DTD SVG 1.1//EN" "http://www.w3.org/Graphics/SVG/1.1/DTD/svg11.dtd"><svg width="100%" height="100%" viewBox="0 0 1000 1000" version="1.1" xmlns="http://www.w3.org/2000/svg" xmlns:xlink="http://www.w3.org/1999/xlink" xml:space="preserve" xmlns:serif="http://www.serif.com/" style="fill-rule:evenodd;clip-rule:evenodd;stroke-linejoin:round;stroke-miterlimit:2;"><g id="Camada_1"><g><g id="path6" opacity="0.89"><path d="M854.127,970.024c-32.708,0 -64.097,-14.489 -85.94,-41.183l-0.343,-0.423l-448.429,-557.554l389.229,-308.864c48.263,-38.301 112.713,-45.439 168.191,-18.629c55.478,26.809 89.929,81.739 89.912,143.355l-0.197,671.334c-0.014,47.869 -29.156,89.194 -74.241,105.283c-12.601,4.496 -25.493,6.679 -38.181,6.679l0,0.002Zm-16.526,-112.002l0,0Zm-336.36,-466.828l336.374,418.229l0.183,-622.732c0.005,-17.119 -11.936,-24.737 -17.071,-27.218c-5.135,-2.481 -18.524,-7.104 -31.932,3.538l-287.554,228.183Z" style="fill:url(#_Linear1);fill-rule:nonzero;"/></g><g id="path61"><path d="M198.694,965.187c-23.538,0 -47.254,-5.291 -69.527,-16.055c-55.478,-26.809 -89.929,-81.739 -89.912,-143.355l0.197,-671.334c0.014,-47.869 29.156,-89.196 74.241,-105.283c45.086,-16.086 93.805,-2.543 124.118,34.504l0.341,0.42l448.429,557.554l-389.229,308.864c-28.887,22.924 -63.573,34.684 -98.661,34.684l0.002,0Zm-30.311,-782.106l-0.183,622.732c-0.005,17.119 11.936,24.737 17.071,27.218c5.135,2.481 18.524,7.104 31.932,-3.538l287.554,-228.183l-336.374,-418.229Zm0.014,-48.599l0,0Z" style="fill:url(#_Linear2);fill-rule:nonzero;"/></g></g></g><defs><linearGradient id="_Linear1" x1="0" y1="0" x2="1" y2="0" gradientUnits="userSpaceOnUse" gradientTransform="matrix(503.839613,-503.839613,503.839613,503.839613,559.636856,721.109829)"><stop offset="0" style="stop-color:#bacf31;stop-opacity:1"/><stop offset="1" style="stop-color:#bacf31;stop-opacity:1"/></linearGradient><linearGradient id="_Linear2" x1="0" y1="0" x2="1" y2="0" gradientUnits="userSpaceOnUse" gradientTransform="matrix(135803.419186,-197771.918492,197771.918492,135803.419186,172633.515044,488265.307202)"><stop offset="0" style="stop-color:#bacf31;stop-opacity:1"/><stop offset="1" style="stop-color:#bacf31;stop-opacity:1"/></linearGradient></defs></svg>